<svg xmlns="http://www.w3.org/2000/svg" viewBox="-20 -20 1000 1000">
  <circle cx="480" cy="480" r="500" fill="#000"/>
  <circle cx="480" cy="480" r="440" fill="#E0E0E0"/>
  <path d="M480 880q-83 0-156-31.5t-127-85.5q-54-54-85.5-127t-31.5-156q0-83 31.5-156t85.5-127q54-54 127-85.5t156-31.5q83 0 156 31.5t127 85.5q54 54 85.5 127t31.5 156q0 83-31.5 156t-85.5 127q-54 54-127 85.5t-156 31.5Zm0-80q134 0 227-93t93-227q0-134-93-227t-227-93q-134 0-227 93t-93 227q0 134 93 227t227 93Zm0-320ZM380 660 660 480 380 300v360Z" fill="#000"/>
</svg>